<?xml version="1.0" encoding="iso-8859-1"?>
<!-- Generator: Adobe Illustrator 19.0.0, SVG Export Plug-In . SVG Version: 6.00 Build 0)  -->
<svg version="1.1" id="Layer_1" xmlns="http://www.w3.org/2000/svg" xmlns:xlink="http://www.w3.org/1999/xlink" x="0px" y="0px"
	 viewBox="0 0 512.001 512.001" style="enable-background:new 0 0 512.001 512.001;" xml:space="preserve">
<path style="fill:#f5a317;" d="M398.227,128.18c-3.687,0-7.375-1.406-10.187-4.22c-5.626-5.626-5.626-14.749,0-20.376l57.057-57.057
	c5.626-5.626,14.749-5.626,20.376,0s5.626,14.749,0,20.376l-57.058,57.058C405.601,126.774,401.914,128.18,398.227,128.18z"/>
<path style="fill:#F4B2B0;" d="M346.147,165.854l1.313-96.025l-52.433-52.433c-6.371-6.371-17.267-1.883-17.302,7.127
	l-0.808,210.561l210.561-0.808c9.01-0.035,13.5-10.931,7.127-17.302l-52.433-52.433L346.147,165.854z"/>
<g>
	<path style="fill:#f5a317;" d="M504.793,206.787l-44.165-44.165l24.079-24.079c5.626-5.626,5.626-14.749,0-20.376
		c-5.626-5.626-14.749-5.626-20.376,0l-32.101,32.101l-71.477,0.977l0.977-71.477l32.101-32.101c5.626-5.626,5.626-14.749,0-20.375
		c-5.626-5.626-14.749-5.626-20.375,0l-24.079,24.079L305.213,7.208C300.566,2.56,294.428,0,287.932,0
		c-13.521,0-24.563,10.977-24.615,24.468l-0.808,210.561c-0.014,3.841,1.504,7.528,4.22,10.243c2.703,2.701,6.367,4.22,10.187,4.22
		c0.019,0,0.037,0,0.056,0l210.561-0.808c9.941-0.037,18.811-6.002,22.598-15.194S511.822,213.817,504.793,206.787z M291.38,220.621
		l0.713-185.785l40.879,40.879l-1.23,89.942c-0.053,3.888,1.468,7.634,4.218,10.385c2.75,2.749,6.443,4.262,10.385,4.218
		l89.942-1.23l40.879,40.879L291.38,220.621z"/>
	<path style="fill:#f5a317;" d="M56.719,469.689c-3.687,0-7.375-1.406-10.187-4.22c-5.626-5.626-5.626-14.749,0-20.376
		l57.057-57.057c5.626-5.626,14.749-5.626,20.376,0c5.627,5.626,5.626,14.749,0,20.376l-57.057,57.057
		C64.092,468.283,60.406,469.689,56.719,469.689z"/>
</g>
<path style="fill:#F4B2B0;" d="M165.854,346.146l-1.312,96.025l52.433,52.433c6.371,6.371,17.267,1.883,17.302-7.127l0.808-210.561
	l-210.561,0.808c-9.01,0.035-13.5,10.931-7.127,17.302l52.433,52.433L165.854,346.146z"/>
<path style="fill:#f5a317;" d="M245.272,266.728c-2.703-2.701-6.367-4.22-10.187-4.22c-0.019,0-0.037,0-0.056,0l-210.561,0.808
	c-9.941,0.037-18.811,6.002-22.598,15.194s-1.691,19.673,5.338,26.702l44.165,44.165l-24.079,24.079
	c-5.626,5.626-5.626,14.749,0,20.376c2.814,2.814,6.501,4.22,10.187,4.22c3.687,0,7.375-1.406,10.187-4.22l32.101-32.101
	l71.477-0.977l-0.977,71.477l-32.101,32.101c-5.626,5.626-5.626,14.749,0,20.375c2.814,2.814,6.501,4.22,10.187,4.22
	c3.687,0,7.375-1.408,10.187-4.22l24.079-24.079l44.165,44.165c4.648,4.648,10.785,7.208,17.281,7.208
	c13.521,0,24.563-10.977,24.615-24.468l0.808-210.561C249.507,273.131,247.988,269.444,245.272,266.728z M219.909,477.164
	l-40.879-40.879l1.23-89.942c0.053-3.889-1.468-7.634-4.218-10.385c-2.752-2.75-6.495-4.267-10.385-4.218l-89.942,1.23
	l-40.877-40.877l185.785-0.713L219.909,477.164z"/>
<g>
</g>
<g>
</g>
<g>
</g>
<g>
</g>
<g>
</g>
<g>
</g>
<g>
</g>
<g>
</g>
<g>
</g>
<g>
</g>
<g>
</g>
<g>
</g>
<g>
</g>
<g>
</g>
<g>
</g>
</svg>
