<svg id="Layer_1" data-name="Layer 1" xmlns="http://www.w3.org/2000/svg" viewBox="0 0 1310 635.61"><defs><style>.cls-1{fill:#fff;}</style></defs><title>_</title><path class="cls-1" d="M169.39,460.22q16.41-28.38,32.9-56.94t33-57.11q16.49-28.56,33-57.11c11-19,21.83-38,33.52-57.86,1,1.56,1.57,2.27,2,3q47.63,82.5,95.22,165a10.9,10.9,0,0,1,.74,2.35,4.92,4.92,0,0,1-.5,1,1.14,1.14,0,0,1-.73.38c-2.74.11-5.48.27-8.23.27q-27.43,0-54.93,0c-11.38-18.89-21.71-37.8-33-56.52-6,7.39-109.81,185.85-130.35,223.85-.68,1.27-1.17,2.65-1.7,3.87,1,.64,1.46,1.22,1.93,1.22q129.63.06,259.28,0c.47,0,1-.57,1.63-1a8.21,8.21,0,0,0-.54-2.45c-10.17-17.73-20.39-35.43-30.34-52.7-3.83-1.81-7.24-1.17-10.53-1.17q-55.42-.07-110.86,0c-3.3,0-6.59-.15-10.58-.25.39-1.75.38-3,.91-3.87q14.58-25.43,29.3-50.77a20.11,20.11,0,0,1,2-2.39h131.4c5.21,6.76,95.71,163.79,98.34,170.57-.8,1.76-2.48,1.37-3.9,1.44-2.13.11-4.27.05-6.41.05q-219.89,0-439.78,0c-3.55,0-7.21.62-11.3-1,2-5.46,5.23-9.88,7.84-14.59,2.51-4.55,5.19-9,7.79-13.49,2.74-4.76,5.46-9.54,8.2-14.3s5.52-9.5,8.27-14.26q3.89-6.75,7.77-13.5,4.11-7.14,8.24-14.27c2.6-4.49,5.32-8.92,7.79-13.49,2.56-4.73,5.87-9.11,7.86-15-6-1.45-11.47-.65-16.82-.79-5.18-.13-10.38,0-15.57,0H37.18c-5.19,0-10.38,0-15.58,0-5.43,0-10.87.16-16.29-.2-1.08-3.34.93-5.18,2.05-7.14q19.16-33.36,38.44-66.65Q171,227.4,296.29,10.46c1.63-2.82,2.65-6.18,5.71-8,5.38,7,275.88,474.2,295.53,510.45a38.82,38.82,0,0,1,1.59,3.7,6,6,0,0,1-.84,1.22,1.56,1.56,0,0,1-.85.27c-3,.1-6.1.25-9.14.25-17.7,0-35.4,0-53.56,0-2-3.22-3.94-6.27-5.75-9.4q-67.1-116.19-134.17-232.41Q351.09,200.77,307.33,125c-1.51-2.61-3.14-5.16-4.83-7.93-3.55,2-4.59,5.35-6.2,8.14q-31.89,55.08-63.67,110.24Q171,342.16,109.44,448.85c-1.94,3.37-3.74,6.82-5.41,9.87a8.13,8.13,0,0,0,.87,1.37,1.49,1.49,0,0,0,.84.35q29.31.13,58.62.23C165.85,460.68,167.34,460.41,169.39,460.22Z"/><path class="cls-1" d="M1054.51,360.83c-6.45,1.33-13,.68-19.08.52-2.29-2.23-1.87-4.45-1.89-6.5-.12-14.66-.15-29.33-.29-44,0-2.94.62-6-.79-8.71a4.56,4.56,0,0,0-1.18-.25,1.23,1.23,0,0,0-.68.47,35.52,35.52,0,0,0-2,3q-12.25,21.5-24.47,43a3.85,3.85,0,0,1-.59.69c-.21.22-.46.41-1,.92h-10c-9.71-15.58-18.25-32-28-47.69-2.63,1.73-1.9,3.7-1.91,5.36-.07,14.66,0,29.33-.06,44,0,3-.26,6-.42,9.26-2.66.25-4.72.61-6.79.62-4.52,0-9-.09-14-.15-1.48-9.33-.59-18.13-.74-26.88s0-17.72,0-26.58c0-8.55,0-17.1,0-25.66,0-8.8-.19-17.62.17-26.34,3.26-2.11,6.38-1.36,9.33-1.47s6.07,0,9.46,0c1.73,2.72,3.43,5.19,4.92,7.78,9.43,16.41,18.79,32.87,28.21,49.29,1.49,2.6,3.15,5.1,5,8,2.84-1.26,3.61-3.64,4.73-5.61q14-24.71,27.91-49.46c1.65-2.92,3.31-5.84,4.9-8.63,6.8-1.81,11-1.87,19.45-.17.18,1.87.52,3.92.57,6C1056.26,308.41,1056,351.85,1054.51,360.83Z"/><path class="cls-1" d="M1095.34,563.78V457.87a27.2,27.2,0,0,1,5.2-1c14.66-.08,29.32-.16,44,0a58.12,58.12,0,0,1,22.25,4.73c15,6.38,24.85,17.33,29.08,33.15a60.56,60.56,0,0,1,.46,29.93c-5,20.79-18.71,33-39.11,38a61.65,61.65,0,0,1-13.6,1.67c-14,.22-28.1.1-42.14.06C1099.69,564.35,1097.92,564,1095.34,563.78Zm24.15-20.94c6.88,1.76,21.82,1.82,29.89.18,14-2.87,23.28-13.52,24.42-28.08,1.38-17.59-5.58-30.27-19.52-35.48a17.21,17.21,0,0,0-3.49-1A101.89,101.89,0,0,0,1140,477c-5.16-.24-10.35-.14-15.52,0a33.92,33.92,0,0,0-5.27.95c-.2,1.92-.5,3.41-.5,4.89q0,28.77.1,57.54A9.24,9.24,0,0,0,1119.49,542.84Z"/><path class="cls-1" d="M945.06,130.58c-1.3,9,.12,18.21-.92,27.71-7.25,1.91-14.45.87-22,.68a19.44,19.44,0,0,1-1.06-4.36q-.07-49.38,0-98.77a22.09,22.09,0,0,1,.53-3.21,27.77,27.77,0,0,1,5-.89q20.58-.1,41.15,0a50,50,0,0,1,19.57,4.07c15.46,6.66,23.09,19.73,22.28,37.38-.56,12.31-5.74,22.28-16.36,29.06-1.23.78-2.33,1.76-3.78,2.88,6.28,11.55,14.48,21.4,20.83,33.08-4.13,1.85-8.06.92-11.83,1.07s-7.31,0-11.42,0c-1.42-1.8-3-3.6-4.35-5.58-3.92-5.81-8.17-11.46-11.46-17.61-3.06-5.72-7.3-7.66-13.38-6.91C953.64,129.71,949.28,128.29,945.06,130.58Zm-.23-22.06c9.11,1.77,21.82,1.61,28.06-.14,5.65-1.58,9.8-4.91,11.76-10.52,4.31-12.32-1.77-22.93-14.55-25.47a35.56,35.56,0,0,0-6.36-.57c-4.57-.09-9.15-.13-13.72,0A29,29,0,0,0,944.83,73Z"/><path class="cls-1" d="M1164.3,255.23a64.06,64.06,0,0,1,0,18c-2.69.28-5,.71-7.38.73-11.91.07-23.82,0-35.73.07-3,0-6.13-.63-9.41,1.38-1.24,6.61-.26,13.54-.49,21a45.86,45.86,0,0,0,6.4,1c10.69.09,21.38,0,32.07.07,2.67,0,5.33.32,8.41.51a68.83,68.83,0,0,1,0,18.08,51.09,51.09,0,0,1-6.19.82c-10.08.08-20.16,0-30.24,0h-9.46c-2.07,8.3-.79,16-.84,23.34,3.61,2.19,6.72,1.5,9.7,1.52,11.91.08,23.82,0,35.73.07,3,0,6.13-.65,9.18,1.26,1.4,5.54,1,11.27.28,17.42a29.54,29.54,0,0,1-5.21,1q-33.92.09-67.81,0a41.11,41.11,0,0,1-4.81-.6c-1.55-8.95-.57-17.76-.74-26.52s0-17.72,0-26.58c0-8.55-.06-17.1,0-25.65.07-8.8-.34-17.61.31-26.6a17.67,17.67,0,0,1,3.87-1q34.36-.09,68.72,0A25.28,25.28,0,0,1,1164.3,255.23Z"/><path class="cls-1" d="M820.62,457.35c4.77-1.07,9.33-.47,13.83-.55,2.67,0,5.34.26,8.51.44.17,3.48.43,6.46.44,9.44q.06,24.29,0,48.56c0,5.22.3,10.38,2,15.37,3.11,9.13,9.41,13.86,19.12,14.25,1.22,0,2.44.06,3.66,0,9.85-.44,16.84-5.71,19.19-15.32a69.16,69.16,0,0,0,1.77-15.4c.22-15.57.08-31.15.08-46.73v-9c5.8-2,11-2.28,22.44-1,.22,2.26.65,4.63.66,7,0,17.41.1,34.82,0,52.23,0,7-.63,14-2.89,20.78Q902,559.75,879,564.82a59.14,59.14,0,0,1-26.34-.11c-13.79-3.17-23.53-11.2-28.81-24.37A50.89,50.89,0,0,1,820,521.59c-.09-20.16-.06-40.32,0-60.48A24.59,24.59,0,0,1,820.62,457.35Z"/><path class="cls-1" d="M792.39,473.39l-14.07,14.07c-1.63-1.22-3.35-2.35-4.92-3.66-8.91-7.43-19.27-8.93-30.18-6.79-8.4,1.64-15.38,6.17-19.68,13.74C716.2,503.69,716,517,723.39,530c5.36,9.35,14,14.19,24.84,14.85,7.4.45,14.63-.11,21.17-4.56,1.55-10-.25-20.06,1.15-30.21,3.53-1.35,6.88-.95,10.15-1,3,0,6,.21,9.41.35a33.52,33.52,0,0,1,1,5.54c.1,10.68,0,21.37.12,32,.07,4.06-1.19,6.92-4.81,9-17.82,10.23-36.61,13.69-56.26,6.79-20.56-7.22-32.11-22.32-35.21-43.88a60,60,0,0,1,1.24-23.62c5.7-22.14,23.64-38.38,49.83-40.19,16.45-1.13,31.49,2.86,43.73,14.71a14.26,14.26,0,0,1,1.24,1.34C791.36,471.63,791.63,472.17,792.39,473.39Z"/><path class="cls-1" d="M790.55,350.36c-8.33,6.73-17.72,10.34-27.71,12-11.86,2-23.76,1.87-35.11-2.95-19-8.08-29.87-22.52-32.76-42.95a57,57,0,0,1,2.23-27.13C704.7,268,720,256,742.32,253.1a61.86,61.86,0,0,1,27.19,2.12c8.87,2.86,16.64,7.46,22.92,15.15-3.3,6.06-9.16,9.51-13.76,14.72-2.32-1.72-4.22-3.14-6.14-4.54-9.5-6.89-19.89-8.86-31.23-5.58a30,30,0,0,0-20.38,18.26,39.31,39.31,0,0,0-.9,26.92c4.35,14.11,17.09,23.3,33.91,22.39,5.9-.31,9.87-1.79,15.89-5.58.07-4.72.13-9.86.2-15q.11-7.23.22-14.5c3.78-1.66,7.17-.91,10.43-1,3-.09,6,.15,8.86.24C791.54,313,792,335.4,790.55,350.36Z"/><path class="cls-1" d="M920.73,361.26h-23.5l-9-21.41c-7.35-1.25-36.89-1.45-47.59-.34-3.74,6.49-5.44,14.33-9.27,21.48-7.29,1-14.53.63-22.36.2.18-1.7,0-3.21.51-4.44q20.78-49.29,41.7-98.52a26.7,26.7,0,0,1,2-3.28,104.84,104.84,0,0,1,23.21.1q21.6,50.86,43.18,101.77A32.31,32.31,0,0,1,920.73,361.26Zm-41.35-42.35c-2.4-9.43-11-31.23-14.83-37.61-4.09,5.69-14.07,31.27-14.68,37.61C857,320.15,871,320.2,879.38,318.91Z"/><path class="cls-1" d="M767.35,136.31h-46c-4.88,6.82-5.92,15.36-10.49,22.63H689.1c-1.39-3,.65-5.29,1.64-7.64q18.45-43.82,37.06-87.56c1.65-3.89,3.34-7.75,5.05-11.72h23c4.37,8.4,7.72,17.52,11.59,26.4s7.66,17.93,11.47,26.91c3.7,8.69,7.55,17.33,11.05,26.1,3.56,9,8.27,17.49,10.93,27.55a222,222,0,0,1-22.76.14C773,152.66,772.28,144,767.35,136.31ZM759,116.91c-.76-6.87-10.63-32.17-14.68-38-.45.29-1.16.48-1.32.88q-6.74,16.94-13.32,33.93c-.37.94,0,2.14,0,3.82C739.73,117.09,749.35,118.19,759,116.91Z"/><path class="cls-1" d="M1281.69,159c-4.32-7-5.82-15-9.58-21.79-6.66-1.52-30.94-1.92-46.64-.8-3.18,3-3.77,7.45-5.51,11.28-1.62,3.59-3,7.28-4.61,11.17h-22.24c-1.44-2.87.62-5.17,1.59-7.49q18.43-43.82,37.06-87.56c1.65-3.89,3.33-7.77,5.06-11.79h22.72a54.11,54.11,0,0,1,2.91,5.23q20.25,47.52,40.41,95.08c.8,1.88,1.31,3.88,2.14,6.41C1296.77,159.7,1289.3,159.35,1281.69,159ZM1248,78.72a10.41,10.41,0,0,0-1.48,2.06q-6.54,16.53-13,33.1a8.67,8.67,0,0,0-.16,2.61c7.72,1.44,22.8,1.36,29.53-.13C1262,109.31,1252.07,84.17,1248,78.72Z"/><path class="cls-1" d="M1182.53,141.8c-10.41,15.85-37.3,24.86-62,15.77-22.87-8.41-35.83-30-34.9-54.64.9-23.94,15.7-43.89,38-50.59,25-7.51,50.54,2.65,58.64,16.77-1.39,1.49-2.78,3.1-4.28,4.59-3,3-6.09,5.94-9.48,9.24-1.9-1.47-3.56-2.67-5.12-4-10-8.54-21.43-10-33.42-5.65-12.46,4.48-18.62,14.39-20.22,27.05a43.34,43.34,0,0,0,.85,14.48c5.9,26.78,36.39,31.2,51.84,17.93,1.61-1.38,3.2-2.8,5.13-4.49C1173.58,131.51,1177.51,136.94,1182.53,141.8Z"/><path class="cls-1" d="M890.78,100.79v18.1a47.05,47.05,0,0,1-6.29.94c-10.37.1-20.74,0-31.11.09-3,0-6.13-.74-9.14,1.58-1.5,12.07.51,24.55-1.22,37.45a140.25,140.25,0,0,1-21.1,0c-2.66-2.64-1.7-5.86-1.71-8.77q-.11-41.18,0-82.36v-15c1.78-.46,3.16-1.12,4.55-1.12q34.31-.09,68.62,0a15.27,15.27,0,0,1,2.76.55c1.9,2.77,1,5.9,1.18,8.84s0,6.05,0,9.53a55.55,55.55,0,0,1-6.65.85c-12.2.08-24.39,0-36.59.06-3,0-6,.17-9.52.28-1.6,9.1-.54,17.83-.7,26,2.16,2.88,4.75,2.35,7.09,2.37,10.07.07,20.13,0,30.2.06C884.1,100.33,887.07,100.6,890.78,100.79Z"/><path class="cls-1" d="M1000.66,457.15h21.77c.21,3,.57,5.61.57,8.25,0,22.56,0,45.12,0,67.67,0,3.31.14,6.61.23,10.3a56.77,56.77,0,0,0,6.67.87c11.28.08,22.56,0,33.84,0h9.28c2.22,6.7,1.24,12.87.8,18.93-8,1.53-65.29,1.59-73.23.19a3.78,3.78,0,0,1-.62-.65,1.78,1.78,0,0,1-.24-.87q-.16-48-.29-96c0-2.13.08-4.26.22-6.39A10.1,10.1,0,0,1,1000.66,457.15Z"/><path class="cls-1" d="M1059.34,158.64a28.72,28.72,0,0,1-3.91.6c-5.78.06-11.56,0-17,0-3-3.27-1.88-6.8-1.9-10-.09-28.38,0-56.75,0-85.12V52.79a35.49,35.49,0,0,1,5.5-1c5.47-.13,11,0,16.87,0,.43,2,1.11,3.67,1.11,5.36q.11,48,0,96.09A49.77,49.77,0,0,1,1059.34,158.64Z"/><path class="cls-1" d="M966.12,564a131,131,0,0,1-21.6-.07,40,40,0,0,1-1-6.14q-.09-47.07,0-94.12a58.18,58.18,0,0,1,.76-6.55h21.33c2.06,3.07,1.29,6.5,1.3,9.72.08,23.14,0,46.29,0,69.44,0,7,0,14,0,21C966.88,559.37,966.44,561.41,966.12,564Z"/></svg>