<svg id="Layer_1" data-name="Layer 1" xmlns="http://www.w3.org/2000/svg" viewBox="0 0 1300 238">
    <title>Dimension11</title>
    <g id="Dimension11">
        <path fill="#F5A317"
            d="M5,12c.26-.21.65-.36.75-.63C6.71,8.78,8.86,8.16,11.3,8c.51,0,1,0,1.54,0C31.67,8,50.5,8,69.33,8a72.7,72.7,0,0,1,21.38,2.78c13.36,4.12,20.19,13.49,21.57,26.9.27,2.64.34,5.31.35,8,0,16.58.09,33.17,0,49.75a67.31,67.31,0,0,1-1.19,12.52c-2.19,11-9,18-19.52,21.64a56,56,0,0,1-18,3c-20.63.15-41.27.09-61.9.11-2.83,0-5.33-.58-6.44-3.64-.07-.2-.37-.32-.57-.48ZM44.82,99.77a5.79,5.79,0,0,0,1,.23c6.36,0,12.72.14,19.07,0s8.53-2.62,8.56-9.06q.09-20.48,0-40.95c0-6.53-2.36-8.83-8.9-8.91-6-.07-12,0-18.05,0a10.75,10.75,0,0,0-1.72.27Z" />
        <path fill="#F5A317"
            d="M907.41,5.32l8.91,1c7.29.85,14.42,2.34,21,5.67s11.37,8,13.78,15a38.29,38.29,0,0,1,2.11,12.13c.07,11.17.06,22.34.07,33.51,0,8.85,0,17.7,0,26.55a48.5,48.5,0,0,1-1.7,13.24,24.79,24.79,0,0,1-11.37,14.73,50,50,0,0,1-16.1,6,100,100,0,0,1-18.17,2,151.79,151.79,0,0,1-24.21-.9,72.58,72.58,0,0,1-17.46-4.32c-11.49-4.59-17.46-13.15-18.32-25.38-.15-2.14-.25-4.29-.25-6.44q0-27.7,0-55.42a56.45,56.45,0,0,1,1.19-12.28,25.81,25.81,0,0,1,13.18-17.56,53,53,0,0,1,18.81-6c3.66-.52,7.35-.77,11-1.17a19.51,19.51,0,0,0,2-.41Zm-22.3,65.23h0c0,7.55,0,15.1,0,22.65,0,4.7,2.13,7.2,6.7,8a44.13,44.13,0,0,0,15.63,0c4.52-.81,6.68-3.39,6.69-8q0-22.78,0-45.57c0-4.28-2.21-6.91-6.46-7.7a49.83,49.83,0,0,0-15.13-.19c-4.36.52-7.65,3.13-7.48,8.95C885.26,56,885.11,63.25,885.11,70.55Z" />
        <path fill="#F5A317"
            d="M156.18,232.68c-.75-.17-1.48-.39-2.24-.53a19.57,19.57,0,0,1-15.82-16.25c-1.09-7,.18-13.3,4.89-18.76,6.61-7.68,22.14-9.17,29.56.08.25.31.53.59,1.17,1.29v-24h5.45V232c-.8,0-1.63.12-2.45.14s-1.51,0-2.5,0v-7.41c-.59.33-.92.41-1.08.62a17.46,17.46,0,0,1-11.9,7,5,5,0,0,0-1,.35Zm17.69-20.81c-.05-1-.07-1.84-.15-2.7a14.69,14.69,0,0,0-13.13-13.42c-5.35-.7-12.74,1.2-16,9.13a17.27,17.27,0,0,0-1.24,8.07c1.24,14.24,14.5,17.13,22.39,13C171.47,223,173.71,217.93,173.87,211.87Z" />
        <path fill="#F5A317"
            d="M5,225a4.57,4.57,0,0,0,1.09-.88c.55-.85,1-1.78,1.42-2.56,2.45,1.38,4.66,2.85,7.05,3.93a27.06,27.06,0,0,0,17.65,1.48,14.71,14.71,0,0,0,5-2.41c4-2.85,4.7-9.91-.64-13.08A26.69,26.69,0,0,0,31,209c-4.18-1.3-8.44-2.35-12.63-3.62a27.37,27.37,0,0,1-5-2.06c-9.42-5.07-7.94-17.5-1.17-22.26A22.76,22.76,0,0,1,23,177.29a32.56,32.56,0,0,1,18.05,3c.92.43,1.75,1,2.76,1.62l-1.92,4.44a30.16,30.16,0,0,0-10.24-3.93c-4.29-.66-8.58-.74-12.72.79-3.44,1.27-5.85,3.58-6.39,7.39-.43,3,.35,5.73,3,7.45a22.85,22.85,0,0,0,5.53,2.64c4.67,1.46,9.41,2.67,14.11,4.05A25.12,25.12,0,0,1,39,206.27c10.17,5,8.51,18.29.87,22.86a24.45,24.45,0,0,1-8.16,3c-.66.12-1.3.35-1.94.53H22c-1.16-.25-2.32-.51-3.49-.75A29.8,29.8,0,0,1,5,225.47Z" />
        <path fill="#F5A317"
            d="M230.47,232.68c-.65-.17-1.29-.4-1.95-.51A20.12,20.12,0,0,1,211.82,213c-.52-9.83,4.67-17.16,11.69-20.29,8.58-3.82,22.72-2.52,28.19,10,5,11.44,0,27.26-15.63,29.6a11.09,11.09,0,0,0-1.47.41Zm-13.05-21c0,14,13,19,22.4,14.34,5-2.45,7.42-6.82,8-12.16,1.32-13-8.49-20.12-19-17.72C221.87,197.68,217.42,203.78,217.42,211.64Z" />
        <path fill="#F5A317"
            d="M103,232.68a12.32,12.32,0,0,0-1.4-.5c-7.6-1.68-12.06-6.77-12.57-14.59-.21-3.16-.15-6.35-.17-9.52,0-4.73,0-9.45,0-14.17v-2.66h5.35c0,1,.13,1.87.13,2.78,0,6.44,0,12.88,0,19.32a30.25,30.25,0,0,0,.44,5.12,10.37,10.37,0,0,0,8.82,8.87,16.09,16.09,0,0,0,8.64-.71c5.34-2,7.95-6.19,8.26-11.67.29-5.06.14-10.13.16-15.2,0-2.74,0-5.48,0-8.44h5.17c.49,1.8.65,37.05.15,40.68h-5v-6.37c-.43.07-.66,0-.73.13a16.15,16.15,0,0,1-11,6.56,2.31,2.31,0,0,0-.64.37Z" />
        <path fill="#F5A317"
            d="M272.78,232.68c-1.49-.33-3-.65-4.47-1a21.63,21.63,0,0,1-9-4.32l2.32-4c.82.46,1.54.87,2.26,1.25a25,25,0,0,0,18.95,2.21,5.79,5.79,0,0,0,4.33-4.35,4.78,4.78,0,0,0-2.64-5.83,30,30,0,0,0-5.84-1.9c-2.58-.63-5.23-1-7.82-1.61a25.49,25.49,0,0,1-4.15-1.36c-8-3.32-7.24-13.35-2.24-17.23a16.58,16.58,0,0,1,8.23-3.4,30.27,30.27,0,0,1,16.4,2.22c.76.35,1.47.8,2.37,1.3-.84,1.5-1.57,2.82-2.19,3.94-3-.94-5.68-2-8.49-2.63a18.13,18.13,0,0,0-9.92.58,6.26,6.26,0,0,0-4.37,4.35,4.76,4.76,0,0,0,1.93,5.67,15.41,15.41,0,0,0,4.45,1.9c3.65,1,7.36,1.69,11,2.54a18,18,0,0,1,2.71.82,9.85,9.85,0,0,1,2.72,16.83,17.06,17.06,0,0,1-7.91,3.53c-.65.14-1.28.36-1.92.54Z" />
        <path fill="#F5A317"
            d="M68.46,232.68c-.56-.17-1.12-.37-1.69-.51A10.12,10.12,0,0,1,58.65,223c-.13-1.28-.14-2.58-.15-3.86q0-10.18,0-20.36v-3.07H51.23v-4.61h7.24v-8.84h5.38v8.58c4.26.51,8.27,0,12.47.34v4.47h-12a11.84,11.84,0,0,0-.34,1.88c0,7.39-.08,14.77,0,22.16.09,7,5.19,10.08,11.62,7.05.47-.22.9-.49,1.59-.87L79,229.45c-1.72,2.23-4.3,2.29-6.44,3.23Z" />
        <path fill="#F5A317"
            d="M322.82,66.69c-2.87,5.28-6,10.45-8.54,15.87s-6.46,8-12.48,7.38a29.1,29.1,0,0,0-4.38,0c-4.44.18-7.54-1.8-9.59-5.68-2.69-5.09-5.47-10.13-8.21-15.19-.4-.73-.83-1.46-1.37-2.4-.79,1.1-.51,2.14-.51,3.09q0,27.2,0,54.39a29.64,29.64,0,0,1-.23,4.11c-.35,2.48-1.44,3.63-3.9,4.16a13.86,13.86,0,0,1-2.81.25q-12.25,0-24.51,0a14.15,14.15,0,0,1-2.06-.12c-2.93-.42-4.21-1.68-4.64-4.63a21.27,21.27,0,0,1-.18-3.09q0-54.39,0-108.78a25.58,25.58,0,0,1,.34-4.1A4,4,0,0,1,243,8.41,16.57,16.57,0,0,1,246.6,8c8.6,0,17.2.06,25.79-.06a9.47,9.47,0,0,1,9.19,5.4c4.81,8.82,9.7,17.6,14.57,26.4a32.49,32.49,0,0,0,2,3.32,3.56,3.56,0,0,0,5.73.07,20.09,20.09,0,0,0,1.59-2.64q7.06-12.89,14.1-25.77c.5-.91,1-1.81,1.55-2.68a8.21,8.21,0,0,1,7.32-4c9.38,0,18.75-.06,28.12,0,4.19,0,5.89,1.86,6,6,0,.77,0,1.54,0,2.32q0,54,0,108a28.81,28.81,0,0,1-.1,3.6c-.33,2.67-1.59,4-4.23,4.47a17.7,17.7,0,0,1-3.09.19q-12.12,0-24.25,0c-6,0-7.48-1.52-7.48-7.47q0-27.84,0-55.68V66.77Z" />
        <path fill="#F5A317"
            d="M538.26,70.27V73q0,25.65,0,51.29a35.27,35.27,0,0,1-.24,4.11,4.16,4.16,0,0,1-3.54,3.9,17.55,17.55,0,0,1-3.31.35q-12.13,0-24.25,0c-.43,0-.86,0-1.29,0-4.06-.23-5.67-1.89-5.81-6,0-.68,0-1.37,0-2.06q0-54.26,0-108.52a24.31,24.31,0,0,1,.28-4.09,4.2,4.2,0,0,1,3.54-3.63A15.85,15.85,0,0,1,506.69,8c5.59,0,11.18,0,16.77,0a13.63,13.63,0,0,1,11.07,5c10,11.58,20.12,23.05,30.2,34.56.84,1,1.69,1.92,2.62,3,.89-.79.52-1.69.52-2.45q0-15.73,0-31.45c0-.86,0-1.72,0-2.58.15-4.15,1.87-6,6.08-6q13.15-.12,26.31,0c4.12,0,5.7,1.7,6,5.81,0,.86,0,1.72,0,2.58q0,54,0,108a33.19,33.19,0,0,1-.22,4.11,4.09,4.09,0,0,1-3.39,3.74,16.08,16.08,0,0,1-3.31.38c-8.17,0-16.34,0-24.51,0-.43,0-.86,0-1.29,0-3.93-.26-5.61-1.89-5.66-5.84q-.12-9.54,0-19.08a6.26,6.26,0,0,0-1.54-4.42q-13.05-15.65-26-31.38c-.49-.59-1-1.16-1.51-1.74Z" />
        <path fill="#F5A317"
            d="M1013.75,70.25v54.06c0,.77,0,1.54,0,2.32-.13,4.21-1.76,6-6,6q-13.15.13-26.31,0c-4.3,0-5.85-1.7-6-6,0-.77,0-1.54,0-2.32v-108a33.23,33.23,0,0,1,.13-3.6c.26-2.6,1.37-3.87,3.9-4.45a15,15,0,0,1,3.06-.3c5.42,0,10.84,0,16.25,0a14,14,0,0,1,11.52,5.19c10.2,11.85,20.56,23.57,30.86,35.33.59.68,1.2,1.34,1.8,2l.55-.2V47.54q0-15.6,0-31.19a33.23,33.23,0,0,1,.14-3.6c.29-2.69,1.46-4,4.14-4.53a13.85,13.85,0,0,1,2.81-.23q12.12,0,24.24,0c.43,0,.86,0,1.29,0,3.91.24,5.58,1.92,5.76,5.81,0,.86,0,1.72,0,2.58q0,54,0,108a30.86,30.86,0,0,1-.1,3.6c-.32,2.67-1.57,4-4.21,4.49a15.66,15.66,0,0,1-2.83.19q-12.12,0-24.24,0c-.52,0-1,0-1.55,0-3.71-.29-5.31-1.78-5.39-5.52-.13-6.35-.13-12.71,0-19.07a7.27,7.27,0,0,0-1.86-5.1c-8.54-10.21-17-20.5-25.48-30.77-.6-.72-1.21-1.42-1.81-2.13Z" />
        <path fill="#F5A317"
            d="M662.68,132.66H634.56c-6,0-7.39-1.43-7.4-7.5s0-11.85,0-17.78c0-.69,0-1.38,0-2.06.2-3.41,1.72-5,5.13-5.23,1-.08,2.06-.06,3.09-.06h41.79c.77,0,1.54,0,2.32,0,3.18-.2,4.8-1.73,4.91-4.8s-.75-5.65-4.13-6.11c-4.26-.59-8.51-1.18-12.76-1.8-5.78-.85-11.57-1.61-17.32-2.62a35.56,35.56,0,0,1-12.86-5.11,19.68,19.68,0,0,1-9-12.4,35.32,35.32,0,0,1-1.11-7.63c-.15-7.81-.21-15.64,0-23.45a26.28,26.28,0,0,1,6.8-17.65,29.88,29.88,0,0,1,14.18-8.5A56.1,56.1,0,0,1,663.55,8q23.48,0,46.94,0c.43,0,.86,0,1.29,0,4.08.21,5.79,1.83,5.84,5.94q.14,10.69,0,21.39c0,3.91-1.61,5.4-5.5,5.65-1,.06-2.06.06-3.09.06h-37.4c-2.14,0-3.91.7-4.71,2.87-.87,2.36-.73,4.67,1.12,6.46a6.14,6.14,0,0,0,3.19,1.4c6,.92,12.09,1.68,18.13,2.53s12,1.31,17.63,3.56c1.19.47,2.38,1,3.54,1.53,8.31,3.85,12.65,10.58,13.06,19.48a251.13,251.13,0,0,1,0,27.3c-.75,12-7.6,19.72-18.69,23.85a41.35,41.35,0,0,1-14.14,2.55c-9.37.09-18.74,0-28.11,0Z" />
        <path fill="#F5A317"
            d="M425.45,40.8V54c1,0,1.93.11,2.85.11h29.14a26.57,26.57,0,0,1,3.34.12,4.63,4.63,0,0,1,4.39,4.32,12,12,0,0,1,.11,1.8q0,9.27,0,18.55a9.81,9.81,0,0,1-.23,2.3,4.24,4.24,0,0,1-3.63,3.53,29.73,29.73,0,0,1-4.1.36c-9.63,0-19.25,0-28.88,0H425.5V100h45.66c1.12,0,2.24,0,3.35.09,3,.31,4.44,1.79,4.72,4.8,0,.51.07,1,.07,1.54q0,9.8,0,19.58a16.91,16.91,0,0,1-.19,2.57,4.09,4.09,0,0,1-3.23,3.6,15.9,15.9,0,0,1-3.56.43q-39.33,0-78.66,0c-.43,0-.86,0-1.28,0-4-.22-5.52-1.68-5.85-5.69-.08-.94-.06-1.89-.06-2.83q0-53.73,0-107.46a37.37,37.37,0,0,1,.26-4.36,4.3,4.3,0,0,1,3.77-4A17.45,17.45,0,0,1,393.57,8h78.65c.43,0,.86,0,1.29,0,4,.24,5.67,1.82,5.73,5.77q.15,10.69,0,21.39c-.05,3.64-1.48,5.06-5.11,5.52a24.49,24.49,0,0,1-3.09.12q-21.29,0-42.55,0Z" />
        <path fill="#F5A317"
            d="M195.43,99.62h15.32c5.84,0,7.34,1.49,7.35,7.29q0,9.15,0,18.3c0,.6,0,1.21,0,1.81-.2,3.67-1.74,5.27-5.4,5.58-.68,0-1.38,0-2.06,0q-35.6,0-71.19,0a17.14,17.14,0,0,1-3.58-.3c-2.43-.51-3.49-1.76-3.87-4.21a4.9,4.9,0,0,1-.06-.77c0-7.47-.09-15,0-22.42.05-3.53,2-5.23,5.63-5.29,4.82-.09,9.63,0,14.45,0h2.73c.54-2,.74-53.6.25-58-.7,0-1.44-.15-2.18-.15-4.47,0-8.94,0-13.41,0-.77,0-1.55,0-2.32-.07-3.39-.3-5.09-1.86-5.14-5.24q-.16-11.34,0-22.68c.05-3.4,1.67-5,5-5.4A24.26,24.26,0,0,1,139.8,8Q175,8,210.21,8a24.65,24.65,0,0,1,3.84.3,4.46,4.46,0,0,1,3.86,4,13.66,13.66,0,0,1,.18,2.56c0,6.62,0,13.23,0,19.85,0,.43,0,.86,0,1.29-.24,3.64-1.83,5.34-5.51,5.44-4.81.13-9.63.06-14.44.07h-2.4c-.23.19-.3.24-.36.3s-.14.13-.15.2a17.83,17.83,0,0,0-.16,1.78q0,27.45,0,54.9A4.22,4.22,0,0,0,195.43,99.62Z" />
        <path fill="#F5A317"
            d="M803.37,41.45v58c.82.06,1.56.17,2.3.17,4.64,0,9.29,0,13.93,0a13.71,13.71,0,0,1,2.57.17,4.4,4.4,0,0,1,3.83,3.66,16.73,16.73,0,0,1,.34,2.8c0,6.53,0,13.06,0,19.59,0,.43,0,.86,0,1.29-.28,3.65-1.85,5.2-5.53,5.48-.52,0-1,0-1.55,0q-36,0-72,0a17.54,17.54,0,0,1-3.32-.32,4.36,4.36,0,0,1-3.71-4.06,11.18,11.18,0,0,1-.09-1.29c0-7.22-.08-14.43,0-21.65.05-3.91,1.83-5.62,5.78-5.68,4.81-.07,9.63,0,14.44,0h2.92v-58c-.87-.05-1.62-.14-2.36-.14-4.39,0-8.78,0-13.16,0-.86,0-1.72,0-2.58-.07-3.28-.31-4.94-1.82-5-5.09q-.16-11.59,0-23.19c0-3,1.44-4.36,4.33-4.91A15.61,15.61,0,0,1,747.37,8h72.74c4.33.15,6.16,1.86,6.21,6.17q.13,10.58,0,21.14c-.05,4.34-1.81,6-6.2,6.12-4.56.08-9.12,0-13.67,0Z" />
        <path fill="#F5A317"
            d="M1168.34,99.24h8c2.92,0,5.85-.07,8.76,0,4.17.13,6,1.89,6,6.08q.12,10.7,0,21.39c0,4-1.78,5.68-5.88,5.9-.43,0-.86,0-1.29,0q-37.26,0-74.52,0a17.73,17.73,0,0,1-3.57-.37,4.06,4.06,0,0,1-3.47-3.66,25.3,25.3,0,0,1-.3-3.58c0-6,0-12,0-18,0-.52,0-1,0-1.55.27-4.52,1.91-6.14,6.44-6.2,5.25-.06,10.49,0,15.73,0h3c.53-2,.66-54.42.16-57.62-.62,0-1.28-.16-1.94-.16-4.12,0-8.25,0-12.38,0a24.52,24.52,0,0,1-2.57-.08c-3-.32-4.45-1.7-4.9-4.7a14.15,14.15,0,0,1-.1-2.06q0-9.8,0-19.58c0-.52,0-1,0-1.55.29-3.5,1.84-5.1,5.33-5.44.77-.07,1.54,0,2.32,0q23.71,0,47.45,0a19.63,19.63,0,0,1,3.82.37,4.1,4.1,0,0,1,3.46,3.68,30.21,30.21,0,0,1,.32,4.35q0,39.69,0,79.37Z" />
        <path fill="#F5A317"
            d="M1231.81,99.24V41.64c-.8-.07-1.53-.18-2.27-.18-4,0-8.08,0-12.12,0-.6,0-1.2,0-1.8,0-4.11-.19-5.82-1.81-5.86-5.9q-.12-10.82,0-21.64c0-3.93,1.78-5.61,5.67-5.87.68,0,1.37,0,2.06,0q23.6,0,47.19,0a17.37,17.37,0,0,1,3.82.36c2.39.54,3.45,1.82,3.73,4.31a35.39,35.39,0,0,1,.14,3.86q0,39.67,0,79.36v3.19c1,.07,1.75.16,2.5.16h12.89a18.49,18.49,0,0,1,2.58.1c3.22.46,4.56,1.84,4.59,5.1q.12,11.6,0,23.19c0,3.12-1.36,4.48-4.46,4.91a20.62,20.62,0,0,1-2.83.12H1213.9c-6.28,0-7.68-1.44-7.69-7.79,0-5.92,0-11.85,0-17.78v-.77c.06-5.39,1.73-7.06,7.14-7.08,5.25,0,10.49,0,15.73,0Z" />
        <path fill="#F5A317"
            d="M195.07,191.2H200c.54,1.9.71,36.8.21,40.77h-5C194.77,230.16,194.59,195.55,195.07,191.2Z" />
        <path fill="#F5A317" d="M201.66,178.05a4,4,0,1,1-8,.1,3.74,3.74,0,0,1,3.95-3.81A3.7,3.7,0,0,1,201.66,178.05Z" />
    </g>
</svg>