<svg id="katman_1" data-name="katman 1" xmlns="http://www.w3.org/2000/svg" viewBox="0 0 781.21 369.9">
    <title>Reef</title>
    <path fill="#F5A317"
        d="M484.38,278.32c1.92,7.55,6.72,10.43,13,11.8,10.7,2.19,21.12.13,31.27-2.75,24.41-7,46.63-19.06,68.71-31.26A34,34,0,0,0,613.71,238c5.07-12.34,11.24-24.41,17.28-37.3-3.43-.14-5.9-.27-8.37-.55a87.08,87.08,0,0,1-11.93-.82c-5.21-1-9.19-3.7-10.42-9.33-1.1-5.34,1.51-9.32,5.62-12.06a19.68,19.68,0,0,1,9.33-3.71c6.44-.82,13.16-.68,19.61-1,3.56-.13,6.72,0,10.42,0,4.8-8.91,9.46-17.82,14.54-26.33,13.71-22.9,29.62-43.61,51.56-59.11A86.43,86.43,0,0,1,756.2,72.06c15.22-1.09,26.33,6.31,31.54,21,4.39,12.34,3.29,25-.27,37.3-2.47,8.91-15,13.16-22.77,8.36-4.11-2.6-4-6.3-4-10.42a55.7,55.7,0,0,0-.27-12.62c-1.51-7.26-5.76-10.69-13-9.18a35.63,35.63,0,0,0-13.71,5.76C716,124,703.67,140.91,693,158.87c-2.47,4.25-4.53,8.78-7.55,14.54h12.89c17.42.27,34.7.41,52.12.82a23.86,23.86,0,0,1,6.17.83c4.8,1.37,8.78,3.7,9.32,9.32a12.06,12.06,0,0,1-7.26,12.89,41.81,41.81,0,0,1-13,2.75c-21.95.68-43.75,1-65.56,1.23h-8.77c-2.33,4.53-4.8,8.78-6.86,13.17-23.18,48.54-46.22,97-69.53,145.5a71,71,0,0,1-9,13.85,30.51,30.51,0,0,1-18.1,10.43c-12.21,2.33-19.48-5.63-14.95-17,4.8-11.93,10.69-23.59,16-35.24,5.63-12.35,11.52-24.83,18.11-38.82-7,3.71-12.48,6.72-17.83,9.6-19.07,10-39.36,18.11-60.76,21.54a103.34,103.34,0,0,1-27.56.82c-16.18-1.92-28.12-11.25-35.93-25.51-1.51-2.47-2.75-4.94-4.39-7.95-5.07,2.88-9.74,5.76-14.54,8.22-20.84,11.52-42.65,20.58-66.24,24.42a92.16,92.16,0,0,1-26.74,1c-22.22-3-35.38-17.15-42.1-37.86-6.17-18.37-3.29-36.06,5.21-52.79,16.46-32.1,41.28-54.86,76.52-64.87a95.8,95.8,0,0,1,33.06-2.88C423.91,168.34,435,181.5,433.78,200a47.68,47.68,0,0,1-13,29.76c-14.12,15.36-32.09,25.37-50.6,34.28-11.11,5.21-22.77,9.87-34.43,14.81.83,7,5.76,10,11.93,11.66,8.78,2.19,17.28,1,25.79-1,22.49-5.21,43.06-15.22,63.36-26.61.68-3,1-6.17,1.78-9.18,10.28-42.38,56.09-88.6,111-87.5,32.5.68,38.26,27.15,31,46.08a62.37,62.37,0,0,1-17.55,24c-15,13.16-32,22.22-49.79,30.17C503.86,270.37,494.53,273.93,484.38,278.32Zm-2.05-26.6a453.8,453.8,0,0,0,57.46-36.07,19.75,19.75,0,0,0,5.35-6.72c4.39-8.23,1-14-8.37-14-10.69,0-19.75,4.66-27.56,11.8C495.9,218.94,488,234.58,482.33,251.72Zm-150,.41A37.83,37.83,0,0,0,336,251c17.28-11,34.69-21.8,51.84-33.05a28.34,28.34,0,0,0,8.23-9.32c4.38-8,1-13.58-8.1-13.72a38.62,38.62,0,0,0-25.92,10c-14.4,12.21-22.08,28.67-29.75,47.18Z"
        transform="translate(-9.39 -14.71)" />
    <path fill="#F5A317"
        d="M146.74,215.51a15.4,15.4,0,0,0-.55,2.33c4.67,22.91,13.17,43.89,28.94,61.31a28.1,28.1,0,0,0,21.67,9.6c25,.13,45.26-10.15,61.85-28.26a89,89,0,0,1,8.78-8.91c4-3,8.77-4,13.3-1.1s5.21,7,4.66,11.8A31.45,31.45,0,0,1,277,279.83c-18.93,19.89-40.87,35.52-68.16,42.24-24.82,6.17-45.12-.68-61.85-19.34a160.47,160.47,0,0,1-27.84-45.66c-4.66-10.7-8.37-21.67-12.48-32.37-.82-2.06-1.65-4.25-3-8.09-2.06,5.21-3.56,8.78-4.94,12.34C91.2,249,84.07,269,76.12,288.75a94.26,94.26,0,0,1-18.79,30c-6.31,6.72-13.72,10.7-23.18,9.6-10-1.37-16.73-8.09-17.69-18.24a38.2,38.2,0,0,1,4.8-22.9C31.27,269,41,250.62,51,232.38c15.77-28.66,31.4-57.32,47.72-85.57a398.54,398.54,0,0,1,24.83-35.52,55.42,55.42,0,0,1,11.52-10.43,11.36,11.36,0,0,1,13.44-.82,10.59,10.59,0,0,1,5.34,11.52,64.61,64.61,0,0,1-3.7,16c-6.72,16.59-14.12,32.91-21.12,49.23-.68,1.37-1.23,2.88-2.33,4.94A50.67,50.67,0,0,0,147,181c35.79-6.58,68.16-39.9,73.64-75.84,3.71-23.31-6.72-42-28.52-51.29a83.94,83.94,0,0,0-33.74-6.17c-14.26,0-28.11.83-42,4.94C95,59.31,79.41,72.61,68,92c-5.07,8.64-10.14,17.14-15.77,25.37a26.6,26.6,0,0,1-16.73,12.21c-12.61,2.88-27.29-3.71-26.05-21.26C10.29,96.89,15.09,87,21.67,78,36.48,57.39,56.09,43.13,78.58,32.57A184.14,184.14,0,0,1,168.27,15c22.77,1.24,44.16,6.86,63.5,19.2,38,24.41,46.08,71.18,27,106.29-13.31,24.82-34,41.82-58.15,55.13A200.07,200.07,0,0,1,146.74,215.51Z"
        transform="translate(-9.39 -14.71)" />
    <path fill="#F5A317"
        d="M637.71,297.25c-.69-14.4,11.24-28.66,29.62-30.17,9.74-.83,20.3,8.64,21.53,18.51,1.92,16.87-7,32.64-26.06,36.76-10.28,2-23.17-8.1-24.68-18.52A53.54,53.54,0,0,1,637.71,297.25Z"
        transform="translate(-9.39 -14.71)" />
</svg>